<svg width="936" height="377" viewBox="0 0 936 377" fill="none" xmlns="http://www.w3.org/2000/svg">
<g clip-path="url(#clip0_24_24)">
<path d="M461.79 175.95C458.24 176.57 455 177.55 451.77 177.56C411.6 177.66 371.44 177.64 331.27 177.6C316.25 177.59 308.23 169.53 308.21 154.43C308.15 110.68 308.12 66.93 308.11 23.17C308.11 9.32004 317.41 0.020039 331.31 0.010039C371.33 -0.00996103 411.36 3.89721e-05 451.38 0.030039C464.77 0.040039 473.52 8.74004 473.54 22.05C473.6 66.81 473.59 111.56 473.67 156.32C473.69 165.19 470.06 171.76 461.8 175.94M384.94 37.55C371.74 37.55 358.54 37.62 345.34 37.53C342.01 37.51 340.32 38.43 340.35 42.16C340.47 59.23 340.45 76.31 340.35 93.38C340.33 96.76 341.59 97.87 344.92 97.86C375.77 97.77 406.61 97.76 437.46 97.85C440.7 97.85 441.66 96.73 441.63 93.58C441.5 76.51 441.46 59.43 441.61 42.36C441.65 38.51 440.27 37.45 436.59 37.49C419.66 37.64 402.73 37.56 384.94 37.56M362.47 105.05C355.02 105.07 347.55 104.85 340.11 105.26C338.12 105.37 335.33 106.94 334.46 108.64C331.13 115.11 328.29 121.86 325.54 128.61C323.79 132.9 326.16 136.7 330.75 137.45C332.15 137.68 333.61 137.65 335.04 137.65C372.46 137.65 409.87 137.65 447.29 137.65C448.72 137.65 450.17 137.66 451.58 137.48C456.78 136.81 458.91 133.54 456.95 128.74C454.37 122.39 451.35 116.21 448.71 109.88C447.25 106.39 445.05 104.98 441.14 105C415.19 105.14 389.24 105.07 362.46 105.06L362.47 105.05Z" fill="white"/>
<path d="M416.38 305.18C587.04 305.18 757.28 305.17 927.51 305.16C930.37 305.16 934.23 304.63 934.86 307.99C935.6 311.99 935.18 316.41 934.2 320.39C933.91 321.57 930.06 322.49 927.84 322.5C899.99 322.65 872.15 322.62 844.3 322.62C618.09 322.6 391.87 322.59 165.66 322.57C161.07 322.57 156.47 322.7 151.88 322.57C147.66 322.45 146.01 320.65 145.84 316.43C145.84 316.29 145.84 316.14 145.84 316C145.59 305.91 146.28 305.19 156.3 305.19C242.85 305.19 329.41 305.19 416.39 305.19L416.38 305.18Z" fill="white"/>
<path d="M646.2 52.87C646.2 86.88 646.23 120.47 646.2 154.05C646.19 169.62 638.19 177.57 622.59 177.58C582.55 177.6 542.51 177.61 502.46 177.61C489.49 177.61 480.94 169.49 480.9 156.67C480.77 111.03 480.73 65.39 480.79 19.75C480.81 7.71996 489.76 0.119958 503.65 0.059958C525.61 -0.020042 547.57 0.019958 569.53 0.019958C587.47 0.019958 605.41 -0.040042 623.35 0.0499581C632.78 0.0999581 640.6 3.27996 644.34 12.68C645.47 15.53 646.02 18.78 646.09 21.86C646.31 32.05 646.18 42.24 646.19 52.86M515.07 5.52996C511.05 5.52996 507.03 5.49996 503.01 5.50996C491.47 5.52996 486.2 10.82 486.2 22.39C486.2 64.44 486.22 106.5 486.23 148.55C486.23 157.8 491.92 163.49 501.31 163.49C541.93 163.49 582.55 163.49 623.16 163.44C635.71 163.43 640.65 158.45 640.65 145.97C640.63 104.92 640.61 63.87 640.57 22.83C640.57 10.98 635.08 5.53996 623.14 5.53996C587.4 5.53996 551.66 5.53996 515.06 5.53996L515.07 5.52996Z" fill="white"/>
<path d="M164.38 285.98C158.53 283.14 154 279.14 150.79 273.99C147.58 268.84 145.97 262.89 145.97 256.13V197.55H170.32V255.02C170.32 259.55 171.64 263.2 174.27 265.96C176.91 268.72 180.41 270.1 184.78 270.1C189.15 270.1 192.38 268.72 194.98 265.96C197.58 263.2 198.87 259.55 198.87 255.02V197.55H223.34V256.13C223.34 262.89 221.73 268.84 218.52 273.99C215.31 279.14 210.77 283.14 204.93 285.98C199.08 288.82 192.32 290.24 184.66 290.24C177 290.24 170.24 288.82 164.39 285.98H164.38Z" fill="white"/>
<path d="M289.38 201.38C294.28 203.93 298.09 207.56 300.81 212.26C303.53 216.96 304.89 222.39 304.89 228.57C304.89 235.08 303.49 240.81 300.69 245.75C297.89 250.69 293.93 254.52 288.83 257.24C283.72 259.96 277.79 261.32 271.03 261.32H260.77V289H236.3V197.54H272.39C278.82 197.54 284.48 198.82 289.38 201.37V201.38ZM277.27 238.03C278.96 235.93 279.8 233.07 279.8 229.44C279.8 225.81 278.91 223.06 277.14 220.91C275.37 218.77 272.96 217.7 269.91 217.7H260.76V241.18H269.91C273.12 241.18 275.57 240.13 277.26 238.03H277.27Z" fill="white"/>
<path d="M330.54 284.37C323.58 280.46 318.2 274.96 314.41 267.87C310.62 260.79 308.72 252.59 308.72 243.28C308.72 233.97 310.61 225.77 314.41 218.69C318.2 211.61 323.58 206.11 330.54 202.19C337.5 198.28 345.51 196.32 354.58 196.32C363.65 196.32 371.49 198.28 378.37 202.19C385.25 206.1 390.58 211.6 394.37 218.69C398.16 225.78 400.06 233.98 400.06 243.28C400.06 252.58 398.16 260.79 394.37 267.87C390.58 274.96 385.24 280.46 378.37 284.37C371.49 288.28 363.56 290.24 354.58 290.24C345.6 290.24 337.5 288.28 330.54 284.37ZM365.21 266.76C368.26 264.54 370.65 261.38 372.38 257.31C374.11 253.23 374.98 248.56 374.98 243.28C374.98 238 374.11 233.33 372.38 229.25C370.65 225.17 368.26 222.02 365.21 219.79C362.16 217.57 358.62 216.45 354.58 216.45C350.54 216.45 346.96 217.56 343.83 219.79C340.7 222.01 338.27 225.17 336.54 229.25C334.81 233.33 333.94 238 333.94 243.28C333.94 248.56 334.81 253.23 336.54 257.31C338.27 261.39 340.7 264.54 343.83 266.76C346.96 268.98 350.54 270.1 354.58 270.1C358.62 270.1 362.16 268.99 365.21 266.76Z" fill="white"/>
<path d="M441.83 258.61H434.04V289.01H409.57V197.55H447.51C453.77 197.55 459.31 198.83 464.13 201.38C468.95 203.93 472.68 207.52 475.31 212.13C477.95 216.75 479.27 222.06 479.27 228.07C479.27 233.43 478.1 238.25 475.75 242.53C473.4 246.82 470.08 250.32 465.8 253.04L486.56 289H458.01L441.82 258.6L441.83 258.61ZM434.04 238.46H442.57C446.03 238.46 448.83 237.51 450.97 235.62C453.11 233.73 454.18 231.21 454.18 228.08C454.18 224.95 453.33 222.44 451.65 220.54C449.96 218.65 447.71 217.7 444.91 217.7H434.03V238.46H434.04Z" fill="white"/>
<path d="M558.13 197.55V217.7H534.77V289.01H510.3V217.7H486.94V197.55H558.13Z" fill="white"/>
<path d="M588.9 289.01V197.55H613.37V289.01H588.9Z" fill="white"/>
<path d="M685.97 203.24C692.44 207.03 697.44 212.37 700.99 219.24C704.53 226.12 706.3 234.05 706.3 243.03C706.3 252.01 704.53 260.11 700.99 267.07C697.45 274.03 692.44 279.43 685.97 283.26C679.5 287.09 672.02 289.01 663.54 289.01H627.33V197.55H663.54C672.02 197.55 679.5 199.45 685.97 203.24ZM676.46 261.76C679.55 257.02 681.09 250.78 681.09 243.04C681.09 235.3 679.55 229.34 676.46 224.69C673.37 220.04 669.31 217.71 664.29 217.71H651.81V268.88H664.29C669.31 268.88 673.37 266.51 676.46 261.77V261.76Z" fill="white"/>
<path d="M740.41 268.86H778.85V289H715.94V197.54H778.11V217.69H740.42V232.77H773.67V252.91H740.42V268.85L740.41 268.86Z" fill="white"/>
<path d="M844.84 289.01L840.76 275.79H810.85L806.65 289.01H780.57L814.43 197.55H837.05L870.91 289.01H844.83H844.84ZM817.16 255.64H834.46L825.81 228.08L817.16 255.64Z" fill="white"/>
<path d="M900.34 268.86H933.59V289H875.87V197.54H900.34V268.85V268.86Z" fill="white"/>
<path d="M120.53 197.22C109.51 197.18 98.59 197.28 87.59 197.24C75.46 197.2 63.11 196.55 50.97 197.04C37.02 197.6 24.91 204.63 18.28 216.98C6.35997 239.21 18.78 267.26 43.86 271.7C45.91 272.06 48.78 272.56 50.51 271.59C61.59 263.3 74.3 255.22 85.28 246.8C86.21 246.08 87.47 245.24 88.3 244.49C88.48 244.33 88.69 244.32 88.61 243.97H52.63C40.33 244.84 38.13 227.7 50.05 225.38H108.77C110.58 225.23 112.98 222.54 114.38 221.25C126.1 210.42 137.14 199.01 148.43 187.76L158.11 177.6L139.87 187.1L120.54 197.21L120.53 197.22Z" fill="white"/>
<path d="M109.23 249.12L109.37 248.58L109.4 248.47C114.59 240.76 120.22 233.3 125.2 225.44C125.34 225.22 126.24 223.99 125.69 223.91C116.31 230.19 107.23 236.96 98.12 243.63C95.95 245.22 93.78 246.82 91.61 248.42C82.75 254.95 73.93 261.52 65.1 268.09L63.55 269.22C56.13 274.82 48.53 280.19 41.27 286C41.07 286.16 40.69 286.45 40.16 287.14C49.92 284.55 59.59 281.52 69.24 278.51C78.78 278.36 88.52 277.72 97.72 278.36C107.89 279.07 108.73 292.23 99 294.19H51.7C50.32 294.1 49.47 294.97 48.48 295.75C42.07 300.86 35.53 306.7 29.34 312.13C22 318.57 14.83 325.23 7.62998 331.82L-0.0200195 338.72L36.03 323.23C37.2 322.64 37.84 322.42 39.18 322.33L105.81 322.35C128.19 320.47 142.48 299.25 139.15 277.59C136.81 262.35 124.46 250.82 109.21 249.1L109.23 249.12Z" fill="white"/>
<path d="M447.86 125.76C446.98 122.34 445.89 118.87 444.14 115.83C443.56 114.82 440.84 114.75 439.1 114.75C408.43 114.7 377.77 114.73 347.1 114.73C341.36 114.73 337.44 117.363 335.34 122.63C333.62 126.94 334.09 129.78 338.71 130.52C342.65 131.15 346.99 130.38 350.98 130.43C362.3 130.57 373.62 130.5 385.37 130.51C401.85 130.48 417.9 130.58 433.94 130.34C437.59 130.29 444.29 130.51 447.86 129.58C449.07 129.27 448.01 126.35 447.86 125.75V125.76ZM407.31 125.78C407.31 126.43 406.78 126.95 406.14 126.95H378.41C377.76 126.95 377.24 126.42 377.24 125.78V121.74C377.24 121.09 377.77 120.57 378.41 120.57H406.14C406.79 120.57 407.31 121.1 407.31 121.74V125.78Z" fill="white"/>
<path d="M612.42 44.81C600.33 36.86 588.21 28.95 576.07 21.08C570.28 17.32 566.66 18.18 562.9 24.13C548.58 46.8 534.29 69.49 519.83 92.44C515.07 100.14 510.32 107.49 505.91 115.03C502.06 121.6 503.24 125.81 509.53 129.91C510.97 130.85 512.4 131.81 513.83 132.77C523.72 139.38 533.57 146.08 543.53 152.59C551.11 157.54 555.23 156.61 560.52 149.13C561.02 148.43 561.55 147.74 561.99 147.01C579.79 117.92 597.61 88.84 615.36 59.72C619 53.74 617.88 48.39 612.41 44.8L612.42 44.81ZM531.85 136.93C529.72 136.8 528.11 134.96 528.24 132.84C528.37 130.71 530.21 129.1 532.33 129.23C534.46 129.36 536.07 131.2 535.94 133.32C535.81 135.45 533.97 137.06 531.85 136.93ZM609.09 60.9C593.19 86.62 577.19 112.28 561.32 138.01C559.11 141.6 556.55 141.72 553.44 139.67C540.88 131.37 528.38 122.98 515.79 114.72C512.88 112.81 514.1 111.13 515.42 109.04C531.13 84.04 546.79 59 562.46 33.98C567.4 25.93 567.37 25.97 574.6 30.82C585.43 38.08 596.31 45.27 607.15 52.51C611.39 55.34 611.76 56.59 609.09 60.91V60.9Z" fill="white"/>
<path d="M935.23 305.13H145.99V322.62H935.23V305.13Z" fill="white"/>
<path d="M259.97 342.05C260.35 342.05 260.62 342.12 260.76 342.27C260.9 342.41 261.04 342.66 261.17 343.01L272.83 374.73C272.96 375.02 272.95 375.27 272.81 375.47C272.67 375.67 272.43 375.78 272.11 375.78H268.51C268 375.78 267.61 375.49 267.36 374.92L264.72 367.67H251L248.31 374.92C248.12 375.5 247.77 375.78 247.25 375.78H243.6C243.28 375.78 243.05 375.68 242.9 375.47C242.76 375.26 242.73 375.01 242.83 374.73L254.49 343.01C254.62 342.66 254.76 342.41 254.92 342.27C255.08 342.13 255.35 342.05 255.74 342.05H259.96H259.97ZM263.33 363.07L257.91 347.28H257.81L252.34 363.07H263.33Z" fill="white"/>
<path d="M295.2 373.86C292.93 375.43 289.84 376.21 285.94 376.21C281.72 376.21 278.42 375.63 276.05 374.48C275.44 374.19 275.22 373.82 275.38 373.38L276.34 370.79C276.56 370.15 276.95 369.96 277.49 370.21C279.79 371.14 282.45 371.6 285.46 371.6C287.89 371.6 289.81 371.19 291.22 370.38C292.63 369.56 293.33 368.39 293.33 366.85C293.33 366.05 293.15 365.35 292.8 364.74C292.45 364.13 291.85 363.56 291 363.04C290.15 362.51 289.42 362.11 288.79 361.84C288.17 361.57 287.17 361.16 285.79 360.62C284.51 360.11 283.51 359.7 282.79 359.4C282.07 359.1 281.21 358.64 280.22 358.03C279.23 357.42 278.48 356.8 277.96 356.16C277.45 355.52 277 354.71 276.62 353.74C276.24 352.76 276.04 351.67 276.04 350.45C276.04 347.57 277.02 345.36 278.99 343.83C280.96 342.29 283.92 341.53 287.89 341.53C291.35 341.53 294.24 342.04 296.58 343.07C297.16 343.33 297.36 343.71 297.2 344.22L296.29 346.72C296.07 347.3 295.65 347.47 295.04 347.25C292.99 346.51 290.75 346.15 288.32 346.15C285.89 346.15 284.11 346.51 282.99 347.23C281.87 347.95 281.31 349.06 281.31 350.56C281.31 351.52 281.61 352.35 282.22 353.06C282.83 353.76 283.51 354.3 284.26 354.67C285.01 355.04 286.09 355.51 287.5 356.09C287.63 356.12 287.72 356.15 287.79 356.19C287.85 356.22 287.94 356.26 288.05 356.31C288.16 356.36 288.27 356.4 288.36 356.43C291.72 357.84 293.99 359.01 295.17 359.93C297.44 361.69 298.58 364.04 298.58 366.98C298.58 369.92 297.44 372.32 295.17 373.89L295.2 373.86Z" fill="white"/>
<path d="M321.74 373.86C319.47 375.43 316.38 376.21 312.48 376.21C308.26 376.21 304.96 375.63 302.59 374.48C301.98 374.19 301.76 373.82 301.92 373.38L302.88 370.79C303.1 370.15 303.49 369.96 304.03 370.21C306.33 371.14 308.99 371.6 312 371.6C314.43 371.6 316.35 371.19 317.76 370.38C319.17 369.56 319.87 368.39 319.87 366.85C319.87 366.05 319.69 365.35 319.34 364.74C318.99 364.13 318.39 363.56 317.54 363.04C316.69 362.51 315.96 362.11 315.33 361.84C314.71 361.57 313.71 361.16 312.33 360.62C311.05 360.11 310.05 359.7 309.33 359.4C308.61 359.1 307.75 358.64 306.76 358.03C305.77 357.42 305.02 356.8 304.5 356.16C303.99 355.52 303.54 354.71 303.16 353.74C302.78 352.76 302.58 351.67 302.58 350.45C302.58 347.57 303.56 345.36 305.53 343.83C307.5 342.29 310.46 341.53 314.43 341.53C317.89 341.53 320.78 342.04 323.12 343.07C323.7 343.33 323.9 343.71 323.74 344.22L322.83 346.72C322.61 347.3 322.19 347.47 321.58 347.25C319.53 346.51 317.29 346.15 314.86 346.15C312.43 346.15 310.65 346.51 309.53 347.23C308.41 347.95 307.85 349.06 307.85 350.56C307.85 351.52 308.15 352.35 308.76 353.06C309.37 353.76 310.05 354.3 310.8 354.67C311.55 355.04 312.63 355.51 314.04 356.09C314.17 356.12 314.26 356.15 314.33 356.19C314.39 356.22 314.48 356.26 314.59 356.31C314.7 356.36 314.81 356.4 314.9 356.43C318.26 357.84 320.53 359.01 321.71 359.93C323.98 361.69 325.12 364.04 325.12 366.98C325.12 369.92 323.98 372.32 321.71 373.89L321.74 373.86Z" fill="white"/>
<path d="M330.62 343.01C330.62 342.37 330.92 342.05 331.53 342.05H334.89C335.56 342.05 335.9 342.37 335.9 343.01V374.83C335.9 375.47 335.56 375.79 334.89 375.79H331.53C330.92 375.79 330.62 375.47 330.62 374.83V343.01Z" fill="white"/>
<path d="M361.23 373.86C358.96 375.43 355.87 376.21 351.97 376.21C347.75 376.21 344.45 375.63 342.08 374.48C341.47 374.19 341.25 373.82 341.41 373.38L342.37 370.79C342.59 370.15 342.98 369.96 343.52 370.21C345.82 371.14 348.48 371.6 351.49 371.6C353.92 371.6 355.84 371.19 357.25 370.38C358.66 369.56 359.36 368.39 359.36 366.85C359.36 366.05 359.18 365.35 358.83 364.74C358.48 364.13 357.88 363.56 357.03 363.04C356.18 362.51 355.45 362.11 354.82 361.84C354.2 361.57 353.2 361.16 351.82 360.62C350.54 360.11 349.54 359.7 348.82 359.4C348.1 359.1 347.24 358.64 346.25 358.03C345.26 357.42 344.51 356.8 343.99 356.16C343.48 355.52 343.03 354.71 342.65 353.74C342.27 352.76 342.07 351.67 342.07 350.45C342.07 347.57 343.05 345.36 345.02 343.83C346.99 342.29 349.95 341.53 353.92 341.53C357.38 341.53 360.27 342.04 362.61 343.07C363.19 343.33 363.39 343.71 363.23 344.22L362.32 346.72C362.1 347.3 361.68 347.47 361.07 347.25C359.02 346.51 356.78 346.15 354.35 346.15C351.92 346.15 350.14 346.51 349.02 347.23C347.9 347.95 347.34 349.06 347.34 350.56C347.34 351.52 347.64 352.35 348.25 353.06C348.86 353.76 349.54 354.3 350.29 354.67C351.04 355.04 352.12 355.51 353.53 356.09C353.66 356.12 353.75 356.15 353.82 356.19C353.88 356.22 353.97 356.26 354.08 356.31C354.19 356.36 354.3 356.4 354.39 356.43C357.75 357.84 360.02 359.01 361.2 359.93C363.47 361.69 364.61 364.04 364.61 366.98C364.61 369.92 363.47 372.32 361.2 373.89L361.23 373.86Z" fill="white"/>
<path d="M367.23 343.01C367.23 342.37 367.55 342.05 368.19 342.05H390.17C390.84 342.05 391.18 342.37 391.18 343.01V345.89C391.18 346.53 390.84 346.85 390.17 346.85H381.87V374.83C381.87 375.47 381.53 375.79 380.86 375.79H377.55C376.91 375.79 376.59 375.47 376.59 374.83V346.85H368.24C367.57 346.85 367.23 346.53 367.23 345.89V343.01Z" fill="white"/>
<path d="M400.92 360.81V371.13H415.27C415.91 371.13 416.23 371.43 416.23 372.04V374.78C416.23 375.45 415.91 375.79 415.27 375.79H396.7C396.03 375.79 395.69 375.47 395.69 374.83V343.01C395.69 342.37 396.01 342.05 396.65 342.05H415.08C415.75 342.05 416.09 342.37 416.09 343.01V345.75C416.09 346.39 415.75 346.71 415.08 346.71H400.92V356.31H414.55C415.16 356.31 415.46 356.65 415.46 357.32V359.82C415.46 360.49 415.16 360.83 414.55 360.83H400.92V360.81ZM406.11 336.57L402.89 339.02C402.41 339.37 402.01 339.55 401.69 339.55H399.63C399.34 339.55 399.17 339.45 399.1 339.24C399.03 339.03 399.1 338.83 399.29 338.64L403.71 334.27C404.06 333.92 404.48 333.74 404.96 333.74H407.22C407.64 333.74 408.05 333.92 408.47 334.27L412.84 338.64C413.06 338.83 413.15 339.03 413.1 339.24C413.05 339.45 412.87 339.55 412.55 339.55H410.49C410.17 339.55 409.77 339.37 409.29 339.02L406.12 336.57H406.11Z" fill="white"/>
<path d="M447.86 374.82C447.86 375.46 447.54 375.78 446.9 375.78H443.54C443 375.78 442.56 375.54 442.24 375.06L426.84 350.83V374.82C426.84 375.46 426.54 375.78 425.93 375.78H422.71C422.04 375.78 421.7 375.46 421.7 374.82V343C421.7 342.36 422.04 342.04 422.71 342.04H426.02C426.63 342.04 427.08 342.26 427.36 342.71L442.72 366.99V343C442.72 342.36 443.04 342.04 443.68 342.04H446.9C447.54 342.04 447.86 342.34 447.86 342.95V374.81V374.82Z" fill="white"/>
<path d="M476.08 369.98C476.66 369.76 477.09 369.95 477.37 370.56L478.47 373.06C478.66 373.48 478.44 373.84 477.8 374.16C475.5 375.57 472.55 376.27 468.97 376.27C464.07 376.27 460.29 374.78 457.62 371.81C454.95 368.84 453.61 364.53 453.61 358.9C453.61 353.27 454.93 349.01 457.57 346.02C460.21 343.03 463.93 341.53 468.73 341.53C472.25 341.53 475.16 342.2 477.46 343.55C478.04 343.87 478.24 344.25 478.08 344.7L477.02 347.15C476.8 347.76 476.36 347.92 475.73 347.63C473.87 346.73 471.81 346.29 469.54 346.29C462.5 346.29 458.98 350.5 458.98 358.91C458.98 367.32 462.56 371.58 469.73 371.58C472.03 371.58 474.14 371.05 476.06 370L476.08 369.98Z" fill="white"/>
<path d="M483.81 343.01C483.81 342.37 484.11 342.05 484.72 342.05H488.08C488.75 342.05 489.09 342.37 489.09 343.01V374.83C489.09 375.47 488.75 375.79 488.08 375.79H484.72C484.11 375.79 483.81 375.47 483.81 374.83V343.01Z" fill="white"/>
<path d="M510.82 342.05C511.2 342.05 511.47 342.12 511.61 342.27C511.75 342.41 511.89 342.66 512.02 343.01L523.68 374.73C523.81 375.02 523.8 375.27 523.66 375.47C523.52 375.68 523.28 375.78 522.96 375.78H519.36C518.85 375.78 518.46 375.49 518.21 374.92L515.57 367.67H501.84L499.15 374.92C498.96 375.5 498.61 375.78 498.09 375.78H494.44C494.12 375.78 493.89 375.68 493.74 375.47C493.6 375.26 493.57 375.01 493.67 374.73L505.33 343.01C505.46 342.66 505.6 342.41 505.76 342.27C505.92 342.13 506.19 342.05 506.58 342.05H510.8H510.82ZM514.18 363.07L508.76 347.28H508.66L503.19 363.07H514.18Z" fill="white"/>
<path d="M538.9 343.01C538.9 342.37 539.22 342.05 539.86 342.05H561.84C562.51 342.05 562.85 342.37 562.85 343.01V345.89C562.85 346.53 562.51 346.85 561.84 346.85H553.54V374.83C553.54 375.47 553.2 375.79 552.53 375.79H549.22C548.58 375.79 548.26 375.47 548.26 374.83V346.85H539.91C539.24 346.85 538.9 346.53 538.9 345.89V343.01Z" fill="white"/>
<path d="M572.59 360.81V371.13H586.94C587.58 371.13 587.9 371.43 587.9 372.04V374.78C587.9 375.45 587.58 375.79 586.94 375.79H568.37C567.7 375.79 567.36 375.47 567.36 374.83V343.01C567.36 342.37 567.68 342.05 568.32 342.05H586.75C587.42 342.05 587.76 342.37 587.76 343.01V345.75C587.76 346.39 587.42 346.71 586.75 346.71H572.59V356.31H586.22C586.83 356.31 587.13 356.65 587.13 357.32V359.82C587.13 360.49 586.83 360.83 586.22 360.83H572.59V360.81ZM577.96 334.56C578.25 334.08 578.65 333.84 579.16 333.84H583.24C583.56 333.84 583.75 333.97 583.82 334.22C583.88 334.48 583.8 334.7 583.58 334.89L579.21 338.97C578.92 339.35 578.49 339.55 577.91 339.55H576.09C575.8 339.55 575.61 339.46 575.51 339.29C575.41 339.11 575.41 338.93 575.51 338.74L577.96 334.57V334.56Z" fill="white"/>
<path d="M614.48 369.98C615.06 369.76 615.49 369.95 615.78 370.56L616.88 373.06C617.07 373.48 616.85 373.84 616.21 374.16C613.91 375.57 610.96 376.27 607.38 376.27C602.48 376.27 598.7 374.78 596.03 371.81C593.36 368.84 592.02 364.53 592.02 358.9C592.02 353.27 593.34 349.01 595.98 346.02C598.62 343.03 602.34 341.53 607.14 341.53C610.66 341.53 613.57 342.2 615.87 343.55C616.45 343.87 616.65 344.25 616.49 344.7L615.43 347.15C615.21 347.76 614.77 347.92 614.13 347.63C612.27 346.73 610.21 346.29 607.94 346.29C600.9 346.29 597.38 350.5 597.38 358.91C597.38 367.32 600.96 371.58 608.13 371.58C610.43 371.58 612.55 371.05 614.46 370L614.48 369.98Z" fill="white"/>
<path d="M648.03 374.82C648.03 375.46 647.71 375.78 647.07 375.78H643.71C643.17 375.78 642.73 375.54 642.41 375.06L627.01 350.83V374.82C627.01 375.46 626.71 375.78 626.1 375.78H622.88C622.21 375.78 621.87 375.46 621.87 374.82V343C621.87 342.36 622.21 342.04 622.88 342.04H626.19C626.8 342.04 627.25 342.26 627.53 342.71L642.89 366.99V343C642.89 342.36 643.21 342.04 643.85 342.04H647.06C647.7 342.04 648.02 342.34 648.02 342.95V374.81L648.03 374.82Z" fill="white"/>
<path d="M655.47 343.01C655.47 342.37 655.77 342.05 656.38 342.05H659.74C660.41 342.05 660.75 342.37 660.75 343.01V374.83C660.75 375.47 660.41 375.79 659.74 375.79H656.38C655.77 375.79 655.47 375.47 655.47 374.83V343.01Z" fill="white"/>
<path d="M689.21 369.98C689.79 369.76 690.22 369.95 690.51 370.56L691.61 373.06C691.8 373.48 691.58 373.84 690.94 374.16C688.64 375.57 685.69 376.27 682.11 376.27C677.21 376.27 673.43 374.78 670.76 371.81C668.09 368.84 666.75 364.53 666.75 358.9C666.75 353.27 668.07 349.01 670.71 346.02C673.35 343.03 677.07 341.53 681.87 341.53C685.39 341.53 688.3 342.2 690.6 343.55C691.18 343.87 691.38 344.25 691.22 344.7L690.16 347.15C689.94 347.76 689.5 347.92 688.86 347.63C687 346.73 684.94 346.29 682.67 346.29C675.63 346.29 672.11 350.5 672.11 358.91C672.11 367.32 675.69 371.58 682.86 371.58C685.16 371.58 687.28 371.05 689.19 370L689.21 369.98Z" fill="white"/>
<path d="M711 342.05C711.38 342.05 711.65 342.12 711.79 342.27C711.93 342.41 712.07 342.66 712.2 343.01L723.86 374.73C723.99 375.02 723.98 375.27 723.84 375.47C723.7 375.68 723.46 375.78 723.14 375.78H719.54C719.03 375.78 718.64 375.49 718.39 374.92L715.75 367.67H702.02L699.33 374.92C699.14 375.5 698.79 375.78 698.27 375.78H694.62C694.3 375.78 694.07 375.68 693.92 375.47C693.78 375.26 693.75 375.01 693.85 374.73L705.51 343.01C705.64 342.66 705.78 342.41 705.94 342.27C706.1 342.13 706.37 342.05 706.76 342.05H710.98H711ZM714.35 363.07L708.93 347.28H708.83L703.36 363.07H714.35Z" fill="white"/>
</g>
<defs>
<clipPath id="clip0_24_24">
<rect width="935.23" height="376.26" fill="white"/>
</clipPath>
</defs>
</svg>
