<svg width="1000" height="230" viewBox="0 0 1000 230" fill="none" xmlns="http://www.w3.org/2000/svg">
<g clip-path="url(#clip0_24_5)">
<path d="M635.541 143.393C618.129 143.393 603.96 129.225 603.96 111.812C603.96 94.4004 618.129 80.2318 635.541 80.2318C652.953 80.2318 667.122 94.4004 667.122 111.812C667.122 129.395 652.783 143.393 635.541 143.393ZM635.541 61.454C607.716 61.454 585.183 83.9873 585.183 111.812C585.183 139.638 607.716 162.171 635.541 162.171C663.366 162.171 685.9 139.638 685.9 111.812C685.9 84.158 663.366 61.454 635.541 61.454Z" fill="black"/>
<path d="M573.916 145.954H578.013V164.902H573.916C552.236 164.902 534.483 147.149 534.483 125.469V38.9208H553.431V64.1854H577.842V83.1339H553.431V125.64C553.431 136.736 562.649 145.954 573.916 145.954Z" fill="black"/>
<path d="M804.711 143.393C787.299 143.393 773.131 129.225 773.131 111.812C773.131 94.4004 787.299 80.2318 804.711 80.2318C822.124 80.2318 836.292 94.4004 836.292 111.812C836.121 129.395 821.953 143.393 804.711 143.393ZM804.711 61.454C776.886 61.454 754.353 83.9873 754.353 111.812C754.353 139.638 776.886 162.171 804.711 162.171C832.537 162.171 855.07 139.638 855.07 111.812C855.07 84.158 832.537 61.454 804.711 61.454Z" fill="black"/>
<path d="M949.641 143.393C932.229 143.393 918.061 129.225 918.061 111.812C918.061 94.4004 932.229 80.2318 949.641 80.2318C967.054 80.2318 981.222 94.4004 981.222 111.812C981.222 129.395 966.883 143.393 949.641 143.393ZM949.641 61.454C921.816 61.454 899.283 83.9873 899.283 111.812C899.283 139.638 921.816 162.171 949.641 162.171C961.932 162.171 973.199 157.733 981.905 150.392V160.293H1000V113.349C1000 112.837 1000 112.325 1000 111.812C1000 84.158 977.467 61.454 949.641 61.454Z" fill="black"/>
<path d="M737.965 61.454H747.012V80.4025H737.965C726.698 80.4025 717.48 89.6207 717.48 100.887V113.178V136.565V160.976H698.532V100.887C698.532 79.2076 716.285 61.454 737.965 61.454Z" fill="black"/>
<path d="M886.651 36.3602H867.702V160.635H886.651V36.3602Z" fill="black"/>
<path d="M408.501 103.448V163.366H389.553V103.448C389.553 92.1813 380.335 82.9631 369.068 82.9631C357.801 82.9631 348.583 92.1813 348.583 103.448V163.366H329.635V103.448C329.635 92.1813 320.416 82.9631 309.15 82.9631C297.883 82.9631 288.665 92.1813 288.665 103.448V163.366H269.717V103.448C269.717 81.7682 287.47 64.0146 308.979 64.0146C321.099 64.0146 331.683 69.3066 339.023 77.8419C346.364 69.3066 356.948 64.0146 369.068 64.0146C390.748 64.0146 408.501 81.7682 408.501 103.448Z" fill="black"/>
<path d="M471.663 145.954C454.251 145.954 440.082 131.785 440.082 114.373C440.082 96.9611 454.251 82.7924 471.663 82.7924C489.075 82.7924 503.244 96.9611 503.244 114.373C503.244 131.785 488.904 145.954 471.663 145.954ZM471.663 64.0146C443.667 64.0146 421.134 86.548 421.134 114.373C421.134 142.198 443.667 164.732 471.492 164.732C499.317 164.732 521.85 142.198 521.85 114.373C522.021 86.7187 499.488 64.0146 471.663 64.0146Z" fill="black"/>
<path d="M114.544 -0.000366211C178.559 -0.000366211 229.089 51.5529 229.089 114.544C229.089 177.876 177.876 229.089 114.544 229.089C51.2119 229.088 0 177.876 0 114.544C0.0001388 51.2116 51.212 -0.000231334 114.544 -0.000366211ZM114.715 140.833L114.544 141.004L114.202 140.833L80.2324 28.1666L36.3604 172.414H44.5547C44.5547 172.414 50.017 147.32 59.0645 132.297C64.0149 124.104 71.526 117.446 81.5977 117.617C88.7673 117.788 94.913 121.714 102.595 132.468C104.302 134.858 106.35 138.784 108.398 142.54C111.627 148.827 114.348 155.283 114.373 155.342C114.402 155.276 121.553 138.942 126.152 132.468C133.834 121.714 139.98 117.788 147.149 117.617C157.221 117.446 164.903 124.104 169.683 132.297C178.73 147.32 184.192 172.414 184.192 172.414H192.387L148.686 28.1666L114.715 140.833Z" fill="black"/>
</g>
<defs>
<clipPath id="clip0_24_5">
<rect width="1000" height="229.088" fill="white"/>
</clipPath>
</defs>
</svg>
