<svg width="801" height="181" viewBox="0 0 801 181" fill="none" xmlns="http://www.w3.org/2000/svg">
<path d="M311.38 38.699C327.139 38.699 342.339 44.0358 353.851 53.4801V40.8505H375.45V178.295H353.851V165.721C342.535 175.109 327.335 180.418 311.38 180.418C291.821 180.418 274.022 173.181 261.281 160.049C248.651 147.084 241.722 129.202 241.722 109.67C241.722 90.1114 248.679 72.1729 261.281 59.1522C274.05 45.9638 291.849 38.699 311.38 38.699ZM161.865 38.1961C179.552 38.1961 195.591 44.6505 207.074 56.4139C219.285 68.9317 225.795 86.5069 225.935 107.295V114.365H114.7C116.041 140.183 135.74 159.35 161.362 159.35C179.748 159.35 192.908 151.499 202.799 134.65L204.001 132.61L222.722 144.653L221.632 146.525C208.947 168.348 188.102 179.887 161.334 179.887C120.959 179.887 92.7659 150.8 92.7659 109.167C92.7659 68.0375 121.825 38.1961 161.865 38.1961ZM736.426 38.1961C754.113 38.1961 770.151 44.6505 781.635 56.4139C793.846 68.9317 800.356 86.5069 800.496 107.295V114.365H689.261C690.602 140.183 710.301 159.35 735.923 159.35C754.309 159.35 767.469 151.499 777.36 134.65L778.562 132.61L797.283 144.653L796.193 146.525C783.508 168.348 762.663 179.887 735.895 179.887C695.52 179.887 667.327 150.8 667.299 109.167C667.299 68.0375 696.386 38.1961 736.426 38.1961ZM84.4393 40.5711V61.1081H21.8503V178.267H0V40.5711H84.4393ZM597.948 38.699C629.242 38.699 648.69 60.186 648.69 94.7776V178.015H626.84V94.7776C626.84 73.1788 614.461 59.236 595.294 59.236C570.649 59.236 561.876 76.2244 561.876 92.1232V178.043H540.025V94.8055C540.025 72.8715 528.038 59.264 508.731 59.264C492.832 59.264 475.844 71.6141 475.844 89.9996V177.959H453.993V40.5432H475.844V53.8713C484.869 44.0358 497.722 38.699 512.727 38.699C534.94 38.699 547.095 49.9314 553.633 60.5772C563.58 46.6344 579.507 38.699 597.948 38.699ZM425.633 0V178.015H403.783V0H425.633ZM310.29 60.5772C283.662 60.5772 263.572 81.701 263.572 109.698C263.572 137.556 283.662 158.54 310.29 158.568C337.925 158.568 356.478 138.925 356.478 109.698C356.478 80.3318 337.925 60.5772 310.29 60.5772ZM161.362 58.7051C139.344 58.7051 120.959 73.3465 115.706 94.6379H203.721C199.866 73.0391 183.157 58.7051 161.362 58.7051ZM735.895 58.7051C713.877 58.7051 695.492 73.3465 690.239 94.6379H778.255C774.399 73.0391 757.69 58.7051 735.895 58.7051Z" fill="black"/>
</svg>
