<?xml version="1.0" encoding="UTF-8"?>
<svg id="Layer_1" data-name="Layer 1" xmlns="http://www.w3.org/2000/svg" viewBox="0 0 935.23 376.26">
  <defs>
    
  </defs>
  <path d="M461.79,175.95c-3.55.62-6.79,1.6-10.02,1.61-40.17.1-80.33.08-120.5.04-15.02-.01-23.04-8.07-23.06-23.17-.06-43.75-.09-87.5-.1-131.26,0-13.85,9.3-23.15,23.2-23.16,40.02-.02,80.05-.01,120.07.02,13.39.01,22.14,8.71,22.16,22.02.06,44.76.05,89.51.13,134.27.02,8.87-3.61,15.44-11.87,19.62M384.94,37.55c-13.2,0-26.4.07-39.6-.02-3.33-.02-5.02.9-4.99,4.63.12,17.07.1,34.15,0,51.22-.02,3.38,1.24,4.49,4.57,4.48,30.85-.09,61.69-.1,92.54-.01,3.24,0,4.2-1.12,4.17-4.27-.13-17.07-.17-34.15-.02-51.22.04-3.85-1.34-4.91-5.02-4.87-16.93.15-33.86.07-51.65.07M362.47,105.05c-7.45.02-14.92-.2-22.36.21-1.99.11-4.78,1.68-5.65,3.38-3.33,6.47-6.17,13.22-8.92,19.97-1.75,4.29.62,8.09,5.21,8.84,1.4.23,2.86.2,4.29.2,37.42,0,74.83,0,112.25,0,1.43,0,2.88.01,4.29-.17,5.2-.67,7.33-3.94,5.37-8.74-2.58-6.35-5.6-12.53-8.24-18.86-1.46-3.49-3.66-4.9-7.57-4.88-25.95.14-51.9.07-78.68.06Z"></path>
  <path class="cls-1" d="M416.38,305.18c170.66,0,340.9-.01,511.13-.02,2.86,0,6.72-.53,7.35,2.83.74,4,.32,8.42-.66,12.4-.29,1.18-4.14,2.1-6.36,2.11-27.85.15-55.69.12-83.54.12-226.21-.02-452.43-.03-678.64-.05-4.59,0-9.19.13-13.78,0-4.22-.12-5.87-1.92-6.04-6.14,0-.14,0-.29,0-.43-.25-10.09.44-10.81,10.46-10.81,86.55,0,173.11,0,260.09,0Z"></path>
  <path d="M646.2,52.87c0,34.01.03,67.6,0,101.18-.01,15.57-8.01,23.52-23.61,23.53-40.04.02-80.08.03-120.13.03-12.97,0-21.52-8.12-21.56-20.94-.13-45.64-.17-91.28-.11-136.92.02-12.03,8.97-19.63,22.86-19.69,21.96-.08,43.92-.04,65.88-.04,17.94,0,35.88-.06,53.82.03,9.43.05,17.25,3.23,20.99,12.63,1.13,2.85,1.68,6.1,1.75,9.18.22,10.19.09,20.38.1,31M515.07,5.53c-4.02,0-8.04-.03-12.06-.02-11.54.02-16.81,5.31-16.81,16.88,0,42.05.02,84.11.03,126.16,0,9.25,5.69,14.94,15.08,14.94,40.62,0,81.24,0,121.85-.05,12.55-.01,17.49-4.99,17.49-17.47-.02-41.05-.04-82.1-.08-123.14,0-11.85-5.49-17.29-17.43-17.29-35.74,0-71.48,0-108.08,0Z"></path>
  <g>
    <path d="M164.38,285.98c-5.85-2.84-10.38-6.84-13.59-11.99-3.21-5.15-4.82-11.1-4.82-17.86v-58.58h24.35v57.47c0,4.53,1.32,8.18,3.95,10.94,2.64,2.76,6.14,4.14,10.51,4.14s7.6-1.38,10.2-4.14c2.6-2.76,3.89-6.41,3.89-10.94v-57.47h24.47v58.58c0,6.76-1.61,12.71-4.82,17.86-3.21,5.15-7.75,9.15-13.59,11.99-5.85,2.84-12.61,4.26-20.27,4.26s-14.42-1.42-20.27-4.26Z"></path>
    <path d="M289.38,201.38c4.9,2.55,8.71,6.18,11.43,10.88,2.72,4.7,4.08,10.13,4.08,16.31,0,6.51-1.4,12.24-4.2,17.18-2.8,4.94-6.76,8.77-11.86,11.49-5.11,2.72-11.04,4.08-17.8,4.08h-10.26v27.68h-24.47v-91.46h36.09c6.43,0,12.09,1.28,16.99,3.83ZM277.27,238.03c1.69-2.1,2.53-4.96,2.53-8.59s-.89-6.38-2.66-8.53c-1.77-2.14-4.18-3.21-7.23-3.21h-9.15v23.48h9.15c3.21,0,5.66-1.05,7.35-3.15Z"></path>
    <path d="M330.54,284.37c-6.96-3.91-12.34-9.41-16.13-16.5-3.79-7.08-5.69-15.28-5.69-24.59s1.89-17.51,5.69-24.59c3.79-7.08,9.17-12.58,16.13-16.5,6.96-3.91,14.97-5.87,24.04-5.87s16.91,1.96,23.79,5.87c6.88,3.91,12.21,9.41,16,16.5,3.79,7.09,5.69,15.29,5.69,24.59s-1.9,17.51-5.69,24.59c-3.79,7.09-9.13,12.59-16,16.5-6.88,3.91-14.81,5.87-23.79,5.87s-17.08-1.96-24.04-5.87ZM365.21,266.76c3.05-2.22,5.44-5.38,7.17-9.45,1.73-4.08,2.6-8.75,2.6-14.03s-.87-9.95-2.6-14.03c-1.73-4.08-4.12-7.23-7.17-9.46-3.05-2.22-6.59-3.34-10.63-3.34s-7.62,1.11-10.75,3.34c-3.13,2.22-5.56,5.38-7.29,9.46-1.73,4.08-2.6,8.75-2.6,14.03s.87,9.95,2.6,14.03c1.73,4.08,4.16,7.23,7.29,9.45,3.13,2.22,6.71,3.34,10.75,3.34s7.58-1.11,10.63-3.34Z"></path>
    <path d="M441.83,258.61h-7.79v30.4h-24.47v-91.46h37.94c6.26,0,11.8,1.28,16.62,3.83,4.82,2.55,8.55,6.14,11.18,10.75,2.64,4.62,3.96,9.93,3.96,15.94,0,5.36-1.17,10.18-3.52,14.46-2.35,4.29-5.67,7.79-9.95,10.51l20.76,35.96h-28.55l-16.19-30.4ZM434.04,238.46h8.53c3.46,0,6.26-.95,8.4-2.84,2.14-1.89,3.21-4.41,3.21-7.54s-.85-5.64-2.53-7.54c-1.69-1.89-3.94-2.84-6.74-2.84h-10.88v20.76Z"></path>
    <path d="M558.13,197.55v20.15h-23.36v71.31h-24.47v-71.31h-23.36v-20.15h71.19Z"></path>
    <path d="M588.9,289.01v-91.46h24.47v91.46h-24.47Z"></path>
    <path d="M685.97,203.24c6.47,3.79,11.47,9.13,15.02,16,3.54,6.88,5.31,14.81,5.31,23.79s-1.77,17.08-5.31,24.04c-3.54,6.96-8.55,12.36-15.02,16.19-6.47,3.83-13.95,5.75-22.43,5.75h-36.21v-91.46h36.21c8.48,0,15.96,1.9,22.43,5.69ZM676.46,261.76c3.09-4.74,4.63-10.98,4.63-18.72s-1.54-13.7-4.63-18.35c-3.09-4.65-7.15-6.98-12.17-6.98h-12.48v51.17h12.48c5.02,0,9.08-2.37,12.17-7.11Z"></path>
    <path d="M740.41,268.86h38.44v20.14h-62.91v-91.46h62.17v20.15h-37.69v15.08h33.25v20.14h-33.25v15.94Z"></path>
    <path d="M844.84,289.01l-4.08-13.22h-29.91l-4.2,13.22h-26.08l33.86-91.46h22.62l33.86,91.46h-26.08ZM817.16,255.64h17.3l-8.65-27.56-8.65,27.56Z"></path>
    <path d="M900.34,268.86h33.25v20.14h-57.72v-91.46h24.47v71.31Z"></path>
  </g>
  <g>
    <path d="M120.53,197.22c-11.02-.04-21.94.06-32.94.02-12.13-.04-24.48-.69-36.62-.2-13.95.56-26.06,7.59-32.69,19.94-11.92,22.23.5,50.28,25.58,54.72,2.05.36,4.92.86,6.65-.11,11.08-8.29,23.79-16.37,34.77-24.79.93-.72,2.19-1.56,3.02-2.31.18-.16.39-.17.31-.52h-35.98c-12.3.87-14.5-16.27-2.58-18.59h58.72c1.81-.15,4.21-2.84,5.61-4.13,11.72-10.83,22.76-22.24,34.05-33.49l9.68-10.16-18.24,9.5-19.33,10.11Z"></path>
    <path d="M109.23,249.12l.14-.54.03-.11c5.19-7.71,10.82-15.17,15.8-23.03.14-.22,1.04-1.45.49-1.53-9.38,6.28-18.46,13.05-27.57,19.72-2.17,1.59-4.34,3.19-6.51,4.79-8.86,6.53-17.68,13.1-26.51,19.67l-1.55,1.13c-7.42,5.6-15.02,10.97-22.28,16.78-.2.16-.58.45-1.11,1.14,9.76-2.59,19.43-5.62,29.08-8.63,9.54-.15,19.28-.79,28.48-.15,10.17.71,11.01,13.87,1.28,15.83h-47.3c-1.38-.09-2.23.78-3.22,1.56-6.41,5.11-12.95,10.95-19.14,16.38-7.34,6.44-14.51,13.1-21.71,19.69l-7.65,6.9,36.05-15.49c1.17-.59,1.81-.81,3.15-.9l66.63.02c22.38-1.88,36.67-23.1,33.34-44.76-2.34-15.24-14.69-26.77-29.94-28.49Z"></path>
  </g>
  <path d="M447.86,125.76c-.88-3.42-1.97-6.89-3.72-9.93-.58-1.01-3.3-1.08-5.04-1.08-30.67-.05-61.33-.02-92-.02q-8.61,0-11.76,7.9c-1.72,4.31-1.25,7.15,3.37,7.89,3.94.63,8.28-.14,12.27-.09,11.32.14,22.64.07,34.39.08,16.48-.03,32.53.07,48.57-.17,3.65-.05,10.35.17,13.92-.76,1.21-.31.15-3.23,0-3.83ZM407.31,125.78c0,.65-.53,1.17-1.17,1.17h-27.73c-.65,0-1.17-.53-1.17-1.17v-4.04c0-.65.53-1.17,1.17-1.17h27.73c.65,0,1.17.53,1.17,1.17v4.04Z"></path>
  <path d="M612.42,44.81c-12.09-7.95-24.21-15.86-36.35-23.73-5.79-3.76-9.41-2.9-13.17,3.05-14.32,22.67-28.61,45.36-43.07,68.31-4.76,7.7-9.51,15.05-13.92,22.59-3.85,6.57-2.67,10.78,3.62,14.88,1.44.94,2.87,1.9,4.3,2.86,9.89,6.61,19.74,13.31,29.7,19.82,7.58,4.95,11.7,4.02,16.99-3.46.5-.7,1.03-1.39,1.47-2.12,17.8-29.09,35.62-58.17,53.37-87.29,3.64-5.98,2.52-11.33-2.95-14.92ZM531.85,136.93c-2.13-.13-3.74-1.97-3.61-4.09.13-2.13,1.97-3.74,4.09-3.61,2.13.13,3.74,1.97,3.61,4.09-.13,2.13-1.97,3.74-4.09,3.61ZM609.09,60.9c-15.9,25.72-31.9,51.38-47.77,77.11-2.21,3.59-4.77,3.71-7.88,1.66-12.56-8.3-25.06-16.69-37.65-24.95-2.91-1.91-1.69-3.59-.37-5.68,15.71-25,31.37-50.04,47.04-75.06,4.94-8.05,4.91-8.01,12.14-3.16,10.83,7.26,21.71,14.45,32.55,21.69,4.24,2.83,4.61,4.08,1.94,8.4Z"></path>
  <rect x="145.99" y="305.13" width="789.24" height="17.49"></rect>
  <g>
    <path d="M259.97,342.05c.38,0,.65.07.79.22.14.14.28.39.41.74l11.66,31.72c.13.29.12.54-.02.74s-.38.31-.7.31h-3.6c-.51,0-.9-.29-1.15-.86l-2.64-7.25h-13.72l-2.69,7.25c-.19.58-.54.86-1.06.86h-3.65c-.32,0-.55-.1-.7-.31-.14-.21-.17-.46-.07-.74l11.66-31.72c.13-.35.27-.6.43-.74.16-.14.43-.22.82-.22h4.22ZM263.33,363.07l-5.42-15.79h-.1l-5.47,15.79h10.99Z"></path>
    <path d="M295.2,373.86c-2.27,1.57-5.36,2.35-9.26,2.35-4.22,0-7.52-.58-9.89-1.73-.61-.29-.83-.66-.67-1.1l.96-2.59c.22-.64.61-.83,1.15-.58,2.3.93,4.96,1.39,7.97,1.39,2.43,0,4.35-.41,5.76-1.22,1.41-.82,2.11-1.99,2.11-3.53,0-.8-.18-1.5-.53-2.11-.35-.61-.95-1.18-1.8-1.7-.85-.53-1.58-.93-2.21-1.2-.62-.27-1.62-.68-3-1.22-1.28-.51-2.28-.92-3-1.22-.72-.3-1.58-.76-2.57-1.37s-1.74-1.23-2.26-1.87c-.51-.64-.96-1.45-1.34-2.42-.38-.98-.58-2.07-.58-3.29,0-2.88.98-5.09,2.95-6.62,1.97-1.54,4.93-2.3,8.9-2.3,3.46,0,6.35.51,8.69,1.54.58.26.78.64.62,1.15l-.91,2.5c-.22.58-.64.75-1.25.53-2.05-.74-4.29-1.1-6.72-1.1s-4.21.36-5.33,1.08-1.68,1.83-1.68,3.33c0,.96.3,1.79.91,2.5.61.7,1.29,1.24,2.04,1.61.75.37,1.83.84,3.24,1.42.13.03.22.06.29.1.06.03.15.07.26.12.11.05.22.09.31.12,3.36,1.41,5.63,2.58,6.81,3.5,2.27,1.76,3.41,4.11,3.41,7.05s-1.14,5.34-3.41,6.91Z"></path>
    <path d="M321.74,373.86c-2.27,1.57-5.36,2.35-9.26,2.35-4.22,0-7.52-.58-9.89-1.73-.61-.29-.83-.66-.67-1.1l.96-2.59c.22-.64.61-.83,1.15-.58,2.3.93,4.96,1.39,7.97,1.39,2.43,0,4.35-.41,5.76-1.22,1.41-.82,2.11-1.99,2.11-3.53,0-.8-.18-1.5-.53-2.11-.35-.61-.95-1.18-1.8-1.7-.85-.53-1.58-.93-2.21-1.2-.62-.27-1.62-.68-3-1.22-1.28-.51-2.28-.92-3-1.22-.72-.3-1.58-.76-2.57-1.37s-1.74-1.23-2.26-1.87c-.51-.64-.96-1.45-1.34-2.42-.38-.98-.58-2.07-.58-3.29,0-2.88.98-5.09,2.95-6.62,1.97-1.54,4.93-2.3,8.9-2.3,3.46,0,6.35.51,8.69,1.54.58.26.78.64.62,1.15l-.91,2.5c-.22.58-.64.75-1.25.53-2.05-.74-4.29-1.1-6.72-1.1s-4.21.36-5.33,1.08-1.68,1.83-1.68,3.33c0,.96.3,1.79.91,2.5.61.7,1.29,1.24,2.04,1.61.75.37,1.83.84,3.24,1.42.13.03.22.06.29.1.06.03.15.07.26.12.11.05.22.09.31.12,3.36,1.41,5.63,2.58,6.81,3.5,2.27,1.76,3.41,4.11,3.41,7.05s-1.14,5.34-3.41,6.91Z"></path>
    <path d="M330.62,343.01c0-.64.3-.96.91-.96h3.36c.67,0,1.01.32,1.01.96v31.82c0,.64-.34.96-1.01.96h-3.36c-.61,0-.91-.32-.91-.96v-31.82Z"></path>
    <path d="M361.23,373.86c-2.27,1.57-5.36,2.35-9.26,2.35-4.22,0-7.52-.58-9.89-1.73-.61-.29-.83-.66-.67-1.1l.96-2.59c.22-.64.61-.83,1.15-.58,2.3.93,4.96,1.39,7.97,1.39,2.43,0,4.35-.41,5.76-1.22,1.41-.82,2.11-1.99,2.11-3.53,0-.8-.18-1.5-.53-2.11-.35-.61-.95-1.18-1.8-1.7-.85-.53-1.58-.93-2.21-1.2-.62-.27-1.62-.68-3-1.22-1.28-.51-2.28-.92-3-1.22-.72-.3-1.58-.76-2.57-1.37s-1.74-1.23-2.26-1.87c-.51-.64-.96-1.45-1.34-2.42-.38-.98-.58-2.07-.58-3.29,0-2.88.98-5.09,2.95-6.62,1.97-1.54,4.93-2.3,8.9-2.3,3.46,0,6.35.51,8.69,1.54.58.26.78.64.62,1.15l-.91,2.5c-.22.58-.64.75-1.25.53-2.05-.74-4.29-1.1-6.72-1.1s-4.21.36-5.33,1.08-1.68,1.83-1.68,3.33c0,.96.3,1.79.91,2.5.61.7,1.29,1.24,2.04,1.61.75.37,1.83.84,3.24,1.42.13.03.22.06.29.1.06.03.15.07.26.12.11.05.22.09.31.12,3.36,1.41,5.63,2.58,6.81,3.5,2.27,1.76,3.41,4.11,3.41,7.05s-1.14,5.34-3.41,6.91Z"></path>
    <path d="M367.23,343.01c0-.64.32-.96.96-.96h21.98c.67,0,1.01.32,1.01.96v2.88c0,.64-.34.96-1.01.96h-8.3v27.98c0,.64-.34.96-1.01.96h-3.31c-.64,0-.96-.32-.96-.96v-27.98h-8.35c-.67,0-1.01-.32-1.01-.96v-2.88Z"></path>
    <path d="M400.92,360.81v10.32h14.35c.64,0,.96.3.96.91v2.74c0,.67-.32,1.01-.96,1.01h-18.57c-.67,0-1.01-.32-1.01-.96v-31.82c0-.64.32-.96.96-.96h18.43c.67,0,1.01.32,1.01.96v2.74c0,.64-.34.96-1.01.96h-14.16v9.6h13.63c.61,0,.91.34.91,1.01v2.5c0,.67-.3,1.01-.91,1.01h-13.63ZM406.11,336.57l-3.22,2.45c-.48.35-.88.53-1.2.53h-2.06c-.29,0-.46-.1-.53-.31s0-.41.19-.6l4.42-4.37c.35-.35.77-.53,1.25-.53h2.26c.42,0,.83.18,1.25.53l4.37,4.37c.22.19.31.39.26.6s-.23.31-.55.31h-2.06c-.32,0-.72-.18-1.2-.53l-3.17-2.45Z"></path>
    <path d="M447.86,374.82c0,.64-.32.96-.96.96h-3.36c-.54,0-.98-.24-1.3-.72l-15.4-24.23v23.99c0,.64-.3.96-.91.96h-3.22c-.67,0-1.01-.32-1.01-.96v-31.82c0-.64.34-.96,1.01-.96h3.31c.61,0,1.06.22,1.34.67l15.36,24.28v-23.99c0-.64.32-.96.96-.96h3.22c.64,0,.96.3.96.91v31.86Z"></path>
    <path d="M476.08,369.98c.58-.22,1.01-.03,1.29.58l1.1,2.5c.19.42-.03.78-.67,1.1-2.3,1.41-5.25,2.11-8.83,2.11-4.9,0-8.68-1.49-11.35-4.46-2.67-2.97-4.01-7.28-4.01-12.91s1.32-9.89,3.96-12.88c2.64-2.99,6.36-4.49,11.16-4.49,3.52,0,6.43.67,8.73,2.02.58.32.78.7.62,1.15l-1.06,2.45c-.22.61-.66.77-1.29.48-1.86-.9-3.92-1.34-6.19-1.34-7.04,0-10.56,4.21-10.56,12.62s3.58,12.67,10.75,12.67c2.3,0,4.41-.53,6.33-1.58Z"></path>
    <path d="M483.81,343.01c0-.64.3-.96.91-.96h3.36c.67,0,1.01.32,1.01.96v31.82c0,.64-.34.96-1.01.96h-3.36c-.61,0-.91-.32-.91-.96v-31.82Z"></path>
    <path d="M510.82,342.05c.38,0,.65.07.79.22.14.14.28.39.41.74l11.66,31.72c.13.29.12.54-.02.74-.14.21-.38.31-.7.31h-3.6c-.51,0-.9-.29-1.15-.86l-2.64-7.25h-13.73l-2.69,7.25c-.19.58-.54.86-1.06.86h-3.65c-.32,0-.55-.1-.7-.31-.14-.21-.17-.46-.07-.74l11.66-31.72c.13-.35.27-.6.43-.74.16-.14.43-.22.82-.22h4.22ZM514.18,363.07l-5.42-15.79h-.1l-5.47,15.79h10.99Z"></path>
    <path d="M538.9,343.01c0-.64.32-.96.96-.96h21.98c.67,0,1.01.32,1.01.96v2.88c0,.64-.34.96-1.01.96h-8.3v27.98c0,.64-.34.96-1.01.96h-3.31c-.64,0-.96-.32-.96-.96v-27.98h-8.35c-.67,0-1.01-.32-1.01-.96v-2.88Z"></path>
    <path d="M572.59,360.81v10.32h14.35c.64,0,.96.3.96.91v2.74c0,.67-.32,1.01-.96,1.01h-18.57c-.67,0-1.01-.32-1.01-.96v-31.82c0-.64.32-.96.96-.96h18.43c.67,0,1.01.32,1.01.96v2.74c0,.64-.34.96-1.01.96h-14.16v9.6h13.63c.61,0,.91.34.91,1.01v2.5c0,.67-.3,1.01-.91,1.01h-13.63ZM577.96,334.56c.29-.48.69-.72,1.2-.72h4.08c.32,0,.51.13.58.38.06.26-.02.48-.24.67l-4.37,4.08c-.29.38-.72.58-1.3.58h-1.82c-.29,0-.48-.09-.58-.26-.1-.18-.1-.36,0-.55l2.45-4.17Z"></path>
    <path d="M614.48,369.98c.58-.22,1.01-.03,1.3.58l1.1,2.5c.19.42-.03.78-.67,1.1-2.3,1.41-5.25,2.11-8.83,2.11-4.9,0-8.68-1.49-11.35-4.46-2.67-2.97-4.01-7.28-4.01-12.91s1.32-9.89,3.96-12.88c2.64-2.99,6.36-4.49,11.16-4.49,3.52,0,6.43.67,8.73,2.02.58.32.78.7.62,1.15l-1.06,2.45c-.22.61-.66.77-1.3.48-1.86-.9-3.92-1.34-6.19-1.34-7.04,0-10.56,4.21-10.56,12.62s3.58,12.67,10.75,12.67c2.3,0,4.42-.53,6.33-1.58Z"></path>
    <path d="M648.03,374.82c0,.64-.32.96-.96.96h-3.36c-.54,0-.98-.24-1.3-.72l-15.4-24.23v23.99c0,.64-.3.96-.91.96h-3.22c-.67,0-1.01-.32-1.01-.96v-31.82c0-.64.34-.96,1.01-.96h3.31c.61,0,1.06.22,1.34.67l15.36,24.28v-23.99c0-.64.32-.96.96-.96h3.21c.64,0,.96.3.96.91v31.86Z"></path>
    <path d="M655.47,343.01c0-.64.3-.96.91-.96h3.36c.67,0,1.01.32,1.01.96v31.82c0,.64-.34.96-1.01.96h-3.36c-.61,0-.91-.32-.91-.96v-31.82Z"></path>
    <path d="M689.21,369.98c.58-.22,1.01-.03,1.3.58l1.1,2.5c.19.42-.03.78-.67,1.1-2.3,1.41-5.25,2.11-8.83,2.11-4.9,0-8.68-1.49-11.35-4.46-2.67-2.97-4.01-7.28-4.01-12.91s1.32-9.89,3.96-12.88c2.64-2.99,6.36-4.49,11.16-4.49,3.52,0,6.43.67,8.73,2.02.58.32.78.7.62,1.15l-1.06,2.45c-.22.61-.66.77-1.3.48-1.86-.9-3.92-1.34-6.19-1.34-7.04,0-10.56,4.21-10.56,12.62s3.58,12.67,10.75,12.67c2.3,0,4.42-.53,6.33-1.58Z"></path>
    <path d="M711,342.05c.38,0,.65.07.79.22.14.14.28.39.41.74l11.66,31.72c.13.29.12.54-.02.74-.14.21-.38.31-.7.31h-3.6c-.51,0-.9-.29-1.15-.86l-2.64-7.25h-13.73l-2.69,7.25c-.19.58-.54.86-1.06.86h-3.65c-.32,0-.55-.1-.7-.31-.14-.21-.17-.46-.07-.74l11.66-31.72c.13-.35.27-.6.43-.74.16-.14.43-.22.82-.22h4.22ZM714.35,363.07l-5.42-15.79h-.1l-5.47,15.79h10.99Z"></path>
  </g>
</svg>